<svg width="20" height="28" viewBox="0 0 20 28" fill="none" xmlns="http://www.w3.org/2000/svg">
<path d="M19.6 5.4998V0.799805H14.9H0V27.6998H19.6V5.4998ZM12.6 22.4998L9.9 20.6998L10.5 19.7998L12.3 20.9998L14.1 18.5998L15 19.1998L12.6 22.4998ZM16.8 12.7998H3.1V12.1998H16.7V12.7998H16.8ZM16.8 11.5998H3.1V10.9998H16.7V11.5998H16.8ZM16.8 10.2998H3.1V9.6998H16.7V10.2998H16.8ZM16.8 9.09981H3.1V8.4998H16.7V9.09981H16.8ZM16.8 7.8998H3.1V7.2998H16.7V7.8998H16.8ZM16.8 6.09981H3.1V5.1998H16.8V6.09981Z" fill="#0AEBED"/>
</svg>
