<svg width="23" height="38" viewBox="0 0 23 38" fill="none" xmlns="http://www.w3.org/2000/svg">
<path d="M22.2998 6.3H1.0998C0.899804 6.3 0.799805 6.2 0.799805 6V0.800003C0.799805 0.600003 0.899804 0.5 1.0998 0.5H22.2998C22.4998 0.5 22.5998 0.600003 22.5998 0.800003V6C22.5998 6.2 22.4998 6.3 22.2998 6.3ZM1.39981 5.7H21.9998V1.1H1.39981V5.7Z" fill="#0AEBED"/>
<path d="M22.2998 37.1998H1.0998C0.899804 37.1998 0.799805 37.0998 0.799805 36.8998V31.5998C0.799805 31.3998 0.899804 31.2998 1.0998 31.2998H22.2998C22.4998 31.2998 22.5998 31.3998 22.5998 31.5998V36.8998C22.5998 36.9998 22.4998 37.1998 22.2998 37.1998ZM1.39981 36.4998H21.9998V31.8998H1.39981V36.4998Z" fill="#0AEBED"/>
<path d="M11.6994 36.0004C10.6994 36.0004 9.89941 35.2004 9.89941 34.2004C9.89941 33.2004 10.6994 32.4004 11.6994 32.4004C12.6994 32.4004 13.4994 33.2004 13.4994 34.2004C13.3994 35.2004 12.6994 36.0004 11.6994 36.0004ZM11.6994 33.1004C11.0994 33.1004 10.5994 33.6004 10.5994 34.3004C10.5994 35.0004 11.0994 35.5004 11.6994 35.5004C12.2994 35.5004 12.7994 35.0004 12.7994 34.3004C12.7994 33.6004 12.2994 33.1004 11.6994 33.1004Z" fill="#0AEBED"/>
<path d="M13.4996 3.69961H9.89961C9.69961 3.69961 9.59961 3.59961 9.59961 3.39961C9.59961 3.19961 9.69961 3.09961 9.89961 3.09961H13.4996C13.6996 3.09961 13.7996 3.19961 13.7996 3.39961C13.7996 3.59961 13.5996 3.69961 13.4996 3.69961Z" fill="#0AEBED"/>
<path d="M22.2998 37.2H1.0998C0.899804 37.2 0.799805 37.1 0.799805 36.9V0.800003C0.799805 0.600003 0.899804 0.5 1.0998 0.5H22.2998C22.4998 0.5 22.5998 0.600003 22.5998 0.800003V36.9C22.5998 37 22.4998 37.2 22.2998 37.2ZM1.39981 36.5H21.9998V1H1.39981V36.5Z" fill="#0AEBED"/>
<path d="M11.6994 26.7998C7.39941 26.7998 3.89941 23.1998 3.89941 18.7998C3.89941 14.3998 7.39941 10.7998 11.6994 10.7998C15.9994 10.7998 19.4994 14.3998 19.4994 18.7998C19.4994 23.1998 15.9994 26.7998 11.6994 26.7998ZM11.6994 11.4998C7.79941 11.4998 4.59941 14.7998 4.59941 18.8998C4.59941 22.9998 7.79941 26.2998 11.6994 26.2998C15.5994 26.2998 18.7994 22.9998 18.7994 18.8998C18.7994 14.6998 15.5994 11.4998 11.6994 11.4998Z" fill="#0AEBED"/>
<path d="M11.6996 26.8004C9.89961 26.8004 8.09961 26.1004 6.69961 24.9004C6.59961 24.8004 6.59961 24.7004 6.59961 24.6004C6.89961 23.5004 7.59961 22.5004 8.59961 21.8004C9.49961 21.2004 10.5996 20.9004 11.7996 20.9004C14.2996 20.9004 16.2996 22.3004 16.9996 24.4004C16.9996 24.5004 16.9996 24.6004 16.8996 24.7004C15.3996 26.1004 13.5996 26.8004 11.6996 26.8004ZM7.19961 24.5004C8.49961 25.5004 9.99961 26.1004 11.6996 26.1004C13.3996 26.1004 14.9996 25.5004 16.2996 24.4004C15.5996 22.3004 13.3996 21.5004 11.7996 21.5004C10.0996 21.5004 7.89961 22.3004 7.19961 24.5004Z" fill="#0AEBED"/>
<path d="M11.8 19.0998C10.5 19.0998 9.5 17.9998 9.5 16.6998C9.5 15.3998 10.5 14.2998 11.8 14.2998C13.1 14.2998 14.1 15.3998 14.1 16.6998C14.1 17.9998 13.1 19.0998 11.8 19.0998ZM11.8 14.9998C10.9 14.9998 10.1 15.7998 10.1 16.7998C10.1 17.7998 10.9 18.5998 11.8 18.5998C12.7 18.5998 13.5 17.7998 13.5 16.7998C13.5 15.7998 12.7 14.9998 11.8 14.9998Z" fill="#0AEBED"/>
</svg>
