<svg width="105" height="94" viewBox="0 0 105 94" fill="none" xmlns="http://www.w3.org/2000/svg">
<g style="mix-blend-mode:plus-lighter">
<path d="M102.478 47L77.4661 92H27.5729L2.56152 47L27.5729 2H77.4661L102.478 47Z" fill="#0091EE" fill-opacity="0.6"/>
<path d="M102.478 47L77.4661 92H27.5729L2.56152 47L27.5729 2H77.4661L102.478 47Z" stroke="#0091EE" stroke-width="4"/>
</g>
<path d="M76.7263 43.8103C78.7363 43.9203 80.4663 42.4303 80.5863 40.4803C80.6563 39.3303 80.1462 38.2803 79.3062 37.5803C80.3462 34.5203 80.2863 31.8103 78.8763 29.7403C77.4563 27.6703 74.8463 26.4603 71.3163 26.2603C69.1063 26.1403 66.5763 26.4002 63.8363 27.0202C61.6763 20.3202 58.1363 16.0202 53.8463 15.7802C49.5863 15.5402 45.5763 19.3503 42.6263 25.6703C39.9863 24.7303 37.4963 24.1702 35.2863 24.0402C31.8463 23.8402 29.1462 24.7203 27.4962 26.5703C25.4862 28.8303 25.2162 32.2803 26.6162 36.5003C25.8562 37.1003 25.3363 38.0002 25.2763 39.0302C25.1563 40.9902 26.6963 42.6702 28.7063 42.7802C29.0063 42.8002 29.2963 42.7703 29.5863 42.7103C30.2263 43.7603 30.9463 44.8203 31.7263 45.8803C24.9363 53.0703 22.0563 60.2202 25.0063 64.5302C26.4263 66.6002 29.0363 67.8103 32.5663 68.0103C34.7763 68.1303 37.3162 67.8703 40.0462 67.2503C42.2062 73.9503 45.7462 78.2503 50.0462 78.4903C54.3062 78.7303 58.3163 74.9203 61.2663 68.6003C63.9063 69.5403 66.3962 70.1003 68.6062 70.2303C72.0462 70.4303 74.7463 69.5503 76.3963 67.7003C78.9963 64.7903 78.7263 59.8802 75.6363 53.9002C74.7063 52.0902 73.5162 50.2403 72.1662 48.3803C73.6562 46.8003 74.9463 45.2403 76.0363 43.6903C76.2463 43.7603 76.4863 43.8003 76.7263 43.8103ZM53.6963 18.1903C56.6663 18.3603 59.5463 21.8402 61.4363 27.6402C58.7363 28.4102 55.8963 29.4803 53.0063 30.8303C50.2663 29.1103 47.5362 27.6803 44.9162 26.5703C47.4962 21.1103 50.7463 18.0203 53.6963 18.1903ZM55.7163 60.9703C56.1563 61.1903 56.6462 61.3303 57.1762 61.3603C59.1862 61.4703 60.9163 59.9802 61.0363 58.0202C61.0463 57.9002 61.0263 57.7903 61.0163 57.6803C61.4763 57.3703 61.9563 57.0603 62.4063 56.7403C61.7663 60.0303 60.9063 62.9503 59.9063 65.4903C57.8163 64.6103 55.6463 63.4903 53.4463 62.1803C54.2063 61.8003 54.9663 61.3903 55.7163 60.9703ZM60.0562 55.3902C59.4362 54.7502 58.5862 54.3302 57.6062 54.2702C55.5962 54.1602 53.8663 55.6503 53.7463 57.6103C53.7162 58.1503 53.8163 58.6602 54.0163 59.1402C53.0263 59.6902 52.0362 60.2003 51.0562 60.6903C48.8062 59.2103 46.5463 57.5303 44.3463 55.6803C42.9063 54.4703 41.5363 53.2203 40.2463 51.9503C40.2162 50.1903 40.2462 48.3803 40.3562 46.4903C40.4762 44.5803 40.6662 42.7503 40.9162 41.0003C42.3562 39.9103 43.8763 38.8303 45.5263 37.7603C47.9463 36.2003 50.4063 34.8103 52.8463 33.6103C55.0963 35.1003 57.3562 36.7703 59.5562 38.6203C60.9962 39.8303 62.3663 41.0803 63.6563 42.3503C63.6863 44.1103 63.6562 45.9203 63.5462 47.8103C63.4262 49.7203 63.2362 51.5503 62.9862 53.3003C62.0462 54.0003 61.0662 54.7002 60.0562 55.3902ZM37.7462 49.3603C36.7462 48.2703 35.8263 47.1803 34.9563 46.0803C35.9363 45.1203 36.9763 44.1603 38.1263 43.1903C38.0163 44.2203 37.9362 45.2703 37.8662 46.3303C37.8062 47.3603 37.7662 48.3703 37.7462 49.3603ZM48.4763 61.8803C46.1763 62.8903 43.9163 63.7103 41.7763 64.3303C41.1063 61.7203 40.6163 58.7503 40.3863 55.4503C41.1463 56.1403 41.9163 56.8203 42.7163 57.4903C44.5963 59.0803 46.5363 60.5403 48.4763 61.8803ZM41.4663 37.5402C42.1063 34.2502 42.9663 31.3302 43.9663 28.7802C46.0563 29.6602 48.2262 30.7803 50.4262 32.0903C48.3162 33.1803 46.2063 34.3903 44.1363 35.7303C43.2163 36.3303 42.3363 36.9302 41.4663 37.5402ZM66.1363 44.9203C67.1363 46.0003 68.0562 47.1103 68.9262 48.2003C67.9462 49.1603 66.9063 50.1203 65.7563 51.0903C65.8663 50.0603 65.9463 49.0103 66.0163 47.9503C66.0763 46.9203 66.1163 45.9103 66.1363 44.9203ZM61.1662 36.7902C59.2762 35.2002 57.3463 33.7402 55.3963 32.4102C57.6963 31.4002 59.9563 30.5703 62.0963 29.9603C62.7663 32.5803 63.2562 35.5403 63.4862 38.8303C62.7462 38.1403 61.9662 37.4602 61.1662 36.7902ZM31.7362 41.5003C32.2162 40.9403 32.5263 40.2403 32.5763 39.4503C32.6963 37.4903 31.1563 35.8103 29.1463 35.7003C29.0863 35.6903 29.0163 35.7103 28.9563 35.7103C27.8563 32.3803 27.9863 29.7202 29.3763 28.1602C30.7963 26.5602 33.2963 26.3503 35.1363 26.4603C37.0963 26.5703 39.3062 27.0702 41.6662 27.9002C40.3262 31.3202 39.2563 35.3103 38.5763 39.6903C36.7163 41.1403 35.0263 42.6203 33.4763 44.1203C32.8563 43.2403 32.2662 42.3703 31.7362 41.5003ZM32.7163 65.6003C30.8263 65.4903 28.3063 64.9903 27.0863 63.2003C25.0463 60.2203 27.2562 54.2903 33.2362 47.8603C34.6062 49.5703 36.1163 51.2703 37.7763 52.9403C37.9163 57.3503 38.4763 61.4103 39.3863 64.9503C36.9363 65.4803 34.6763 65.7103 32.7163 65.6003ZM50.1863 76.0903C47.2163 75.9203 44.3363 72.4402 42.4363 66.6402C45.1363 65.8702 47.9762 64.8003 50.8662 63.4503C53.6062 65.1703 56.3363 66.6103 58.9563 67.7103C56.3863 73.1703 53.1363 76.2603 50.1863 76.0903ZM73.4063 54.9903C75.9763 59.9703 76.3863 64.0303 74.5163 66.1203C73.0963 67.7203 70.5963 67.9303 68.7563 67.8203C66.7963 67.7103 64.5863 67.2103 62.2263 66.3803C63.5763 62.9603 64.6363 58.9703 65.3163 54.5803C67.1763 53.1303 68.8662 51.6402 70.4162 50.1502C71.5662 51.7902 72.5863 53.4103 73.4063 54.9903ZM66.1062 41.3503C65.9662 36.9503 65.4062 32.8803 64.4963 29.3503C66.9362 28.8103 69.1963 28.5703 71.1563 28.6803C73.0463 28.7903 75.5663 29.3003 76.7863 31.0803C77.7163 32.4303 77.7463 34.4003 76.9763 36.7303C75.0363 36.7003 73.3863 38.1603 73.2763 40.0603C73.2263 40.9103 73.5062 41.7103 73.9862 42.3503C73.0562 43.6703 71.9363 45.0303 70.6363 46.4303C69.2863 44.7203 67.7662 43.0203 66.1062 41.3503Z" fill="#F2F61B"/>
</svg>
