<svg width="105" height="94" viewBox="0 0 105 94" fill="none" xmlns="http://www.w3.org/2000/svg">
<g style="mix-blend-mode:plus-lighter">
<path d="M102.478 47L77.4661 92H27.5729L2.56152 47L27.5729 2H77.4661L102.478 47Z" fill="#0091EE" fill-opacity="0.6"/>
<path d="M102.478 47L77.4661 92H27.5729L2.56152 47L27.5729 2H77.4661L102.478 47Z" stroke="#0091EE" stroke-width="4"/>
</g>
<path d="M81.8735 23.7695H23.9336C22.7836 23.7695 21.8535 24.6996 21.8535 25.8396V64.1997C21.8535 64.9797 22.2836 65.6495 22.9136 66.0095C23.2136 66.1795 23.5636 66.2795 23.9336 66.2795H40.7936V69.3296H65.0135V66.2795H81.8735C82.2435 66.2795 82.5936 66.1795 82.8936 66.0095C83.5236 65.6495 83.9536 64.9797 83.9536 64.1997V25.8396C83.9536 24.6996 83.0235 23.7695 81.8735 23.7695ZM82.1736 64.2097C82.1736 64.3697 82.0435 64.5095 81.8735 64.5095H23.9336C23.7736 64.5095 23.6335 64.3797 23.6335 64.2097V25.8496C23.6335 25.6896 23.7636 25.5496 23.9336 25.5496H81.8735C82.0435 25.5496 82.1736 25.6796 82.1736 25.8496V64.2097Z" fill="#F2F61B"/>
<path d="M72.6028 70.6602H33.1328V72.29H72.6028V70.6602Z" fill="#F2F61B"/>
<path d="M68.0636 37.959H37.6836V52.6089H68.0636V37.959Z" fill="#F2F61B"/>
</svg>
