<svg width="105" height="94" viewBox="0 0 105 94" fill="none" xmlns="http://www.w3.org/2000/svg">
<g style="mix-blend-mode:plus-lighter">
<path d="M102.478 47L77.4661 92H27.5729L2.56152 47L27.5729 2H77.4661L102.478 47Z" fill="#0091EE" fill-opacity="0.6"/>
<path d="M102.478 47L77.4661 92H27.5729L2.56152 47L27.5729 2H77.4661L102.478 47Z" stroke="#0091EE" stroke-width="4"/>
</g>
<path d="M46.7926 46.8195C46.7426 46.7295 46.7026 46.6394 46.6526 46.5394C46.5426 46.2694 46.4427 45.9895 46.3527 45.7095C46.1927 45.1595 46.0527 44.6395 45.9727 44.1095C45.8027 43.0595 45.7526 42.0594 45.7526 41.1494C45.7426 39.3194 45.9926 37.8294 46.1526 36.7794C46.3326 35.7294 46.4827 35.1594 46.4827 35.1594C46.4827 35.1594 46.4126 35.7594 46.3326 36.7994C46.2426 37.8494 46.2026 39.3495 46.2826 41.1395C46.3326 42.0295 46.4226 42.9895 46.6526 43.9795C46.8926 44.9895 47.1826 45.9395 47.7726 46.8895C48.3926 47.7795 49.0526 48.7595 49.9926 49.3395C50.0126 49.3495 50.0226 49.3595 50.0326 49.3695L49.8026 50.7195C49.8026 50.7195 52.2326 56.4295 53.4526 56.1095C54.6726 55.7895 56.8625 50.8795 56.8625 50.8795L56.5626 49.3595C57.4926 48.7595 58.1126 47.8195 58.7826 46.8595C59.3226 45.9895 59.6726 44.9395 59.8826 43.9695C60.1126 42.9895 60.2026 42.0195 60.2526 41.1295C60.3426 39.3395 60.2926 37.8294 60.2026 36.7894C60.1226 35.7394 60.0526 35.1494 60.0526 35.1494C60.0526 35.1494 60.2126 35.7295 60.3826 36.7695C60.5526 37.8195 60.7926 39.3095 60.7826 41.1395C60.7826 42.0495 60.7426 43.0495 60.5626 44.0995C60.4126 44.9395 60.2126 45.8295 59.7926 46.6995C64.1926 46.0795 67.7626 44.8495 68.8026 43.1895C70.8126 39.9695 64.1226 28.8295 64.1226 28.8295C63.7826 27.6595 63.1126 26.3694 61.8326 25.2894C60.5526 24.2194 58.6826 23.3295 55.9426 22.9795C55.6726 22.9395 55.3827 22.8895 55.1027 22.8595C54.5227 22.7995 53.9326 22.7695 53.3226 22.7695H52.9727C52.3627 22.7695 51.7726 22.7995 51.1926 22.8595C50.9126 22.8895 50.6227 22.9395 50.3527 22.9795C45.1927 23.6495 43.1026 26.1694 42.3126 28.4194C42.3126 28.4194 37.4727 36.8694 37.4727 41.2794C37.4727 42.0694 37.6227 42.7295 37.9827 43.1895C39.4727 45.0995 42.8126 46.2595 46.7926 46.8195Z" fill="#F2F61B"/>
<path d="M68.6935 55.1193L63.5735 53.7393L62.9835 53.5792L57.2734 51.9492C56.2334 54.4692 54.5835 58.3892 53.3335 58.5592C52.2435 58.7092 50.4635 54.8492 49.3435 52.0992L43.6835 53.5892L43.0835 53.7493L37.9635 55.1293C36.2535 55.5993 34.8535 57.3092 34.8535 58.9492V70.9893H53.3335H71.8135V58.9492C71.8035 57.2892 70.4135 55.5893 68.6935 55.1193Z" fill="#F2F61B"/>
</svg>
