<svg width="104" height="94" viewBox="0 0 104 94" fill="none" xmlns="http://www.w3.org/2000/svg">
<g style="mix-blend-mode:plus-lighter">
<path d="M101.958 47L76.9466 92H27.0534L2.04199 47L27.0534 2H76.9466L101.958 47Z" fill="#0091EE" fill-opacity="0.6"/>
<path d="M101.958 47L76.9466 92H27.0534L2.04199 47L27.0534 2H76.9466L101.958 47Z" stroke="#0091EE" stroke-width="4"/>
</g>
<path d="M65.8819 18H38.1005C36.9397 18 36 19.153 36 20.5823V72.4177C36 73.8391 36.9397 75 38.1005 75H65.8819C67.0428 75 67.9825 73.847 67.9825 72.4177V20.5823C67.9825 19.1609 67.0428 18 65.8819 18ZM51.9913 73.6101C50.554 73.6101 49.3773 72.4729 49.3773 71.0673C49.3773 69.6616 50.5461 68.5324 51.9913 68.5324C53.4364 68.5324 54.613 69.6695 54.613 71.0673C54.613 72.465 53.4443 73.6101 51.9913 73.6101ZM66.3794 64.4654C66.3794 66.0448 65.1159 67.332 63.5524 67.332H40.4302C38.8745 67.332 37.6109 66.0448 37.6109 64.4654V26.6708C37.6109 25.0914 38.8745 23.8121 40.4302 23.8121H63.5524C65.1081 23.8121 66.3794 25.0914 66.3794 26.6708V64.4654Z" fill="#F2F61B"/>
<path d="M43.9121 48.9945H60.0692V31.9609H43.9121V48.9945ZM44.7966 32.8138H59.1847V48.1417H57.2105V45.1329C57.2105 44.667 56.8157 44.1853 56.3339 44.059L54.8098 43.6641L54.644 43.6167L53.104 43.1587V42.3295C53.2067 42.2426 53.3173 42.1401 53.4278 42.0295C53.5147 41.9347 53.6094 41.8321 53.6963 41.7294C54.9914 41.5557 56.0575 41.2003 56.3576 40.7186C56.9261 39.8104 55.0388 36.6675 55.0388 36.6675C54.8493 36.0041 54.2807 35.2066 52.7329 35.0091C52.6539 34.9933 52.575 34.9854 52.4961 34.9775C52.3302 34.9617 52.1644 34.9538 51.9906 34.9538H51.8959C51.7222 34.9538 51.5563 34.9617 51.3905 34.9775C51.3115 34.9854 51.2325 35.0012 51.1535 35.0091C49.6926 35.1987 49.1082 35.9093 48.8871 36.549C48.8871 36.549 46.9919 39.8578 47.6631 40.7265C48.0896 41.2793 49.0924 41.6109 50.2691 41.7609C50.3954 41.911 50.5218 42.0452 50.6481 42.1716C50.6639 42.1874 50.6797 42.2032 50.6955 42.2111C50.7271 42.2427 50.7587 42.2743 50.7903 42.298C50.8219 42.3217 50.8535 42.3532 50.8851 42.3769V43.2298L49.2741 43.6562L49.1082 43.7037L47.6552 44.0906C47.1735 44.2248 46.7786 44.7065 46.7786 45.1725V48.1417H44.8044V32.8138H44.7966Z" fill="#F2F61B"/>
<path d="M60.0692 50.6465H43.9121V54.3581H60.0692V50.6465Z" fill="#F2F61B"/>
</svg>
