<svg width="52" height="78" viewBox="0 0 52 78" fill="none" xmlns="http://www.w3.org/2000/svg">
<g style="mix-blend-mode:plus-lighter">
<path d="M51.6424 25.8513C51.6604 11.6138 40.0827 0.0120561 25.8513 2.10826e-05C11.6078 -0.0180315 0.0120493 11.5597 1.42378e-05 25.7972C-0.00600328 31.6281 1.89554 37.1402 5.51206 41.7376C8.04544 44.963 10.4645 48.5013 12.5586 52.0095L12.5405 67.7152C12.5405 69.1413 13.6959 70.3027 15.1281 70.3027L18.0586 70.3087V71.5604C18.0526 74.5752 20.4957 77.0243 23.5105 77.0243L28.0296 77.0303C31.0444 77.0363 33.4935 74.5932 33.4935 71.5784V70.3268L36.4241 70.3328C37.8502 70.3328 39.0116 69.1774 39.0116 67.7513L39.0296 52.0696C41.1478 48.5193 43.5127 45.0592 46.0942 41.7917C49.7168 37.2003 51.6364 31.6883 51.6424 25.8513ZM22.0482 48.7058L17.6013 29.2091L20.2911 27.5543L23.6067 30.6834C23.8715 30.9301 24.2145 31.0444 24.5756 31.0324C24.9306 31.0083 25.2676 30.8398 25.4962 30.563L28.3666 27.0669L30.0335 30.3344C30.2621 30.7797 30.7134 31.0384 31.1828 31.0384C31.3513 31.0384 31.5138 31.0083 31.6762 30.9421L33.8486 30.0395L29.546 48.7119L22.0482 48.7058ZM33.8546 53.893L33.8486 58.2316L17.7156 58.2135L17.7216 53.8749L33.8546 53.893ZM17.7096 65.1337L17.7156 60.795L33.8546 60.8131L33.8486 65.1517L17.7096 65.1337ZM34.9799 48.7179H33.5176L38.4339 27.3918C38.6746 26.3508 38.0247 25.3097 36.9837 25.069C35.9427 24.8283 34.9016 25.4782 34.6609 26.5253L34.5646 26.9525L31.7906 28.1018L29.7687 24.1423C29.5701 23.7512 29.191 23.4924 28.7517 23.4443C28.3124 23.3901 27.8912 23.5707 27.6144 23.9077L24.365 27.8551L21.3381 25.0028C20.9109 24.6057 20.267 24.5335 19.7736 24.8404L16.9875 26.5494L16.9754 26.5012C16.7408 25.4602 15.7057 24.8043 14.6527 25.045C13.6116 25.2857 12.9557 26.3207 13.1904 27.3677L18.0646 48.7058H16.6023C14.4962 45.2277 12.0772 41.7376 9.56787 38.5423C6.67946 34.8716 5.15703 30.4667 5.16305 25.8092C5.17508 14.424 14.4481 5.1691 25.8392 5.18113C37.2244 5.19317 46.4793 14.4722 46.4673 25.8573C46.4613 30.5209 44.9268 34.9197 42.0324 38.5844C39.487 41.8098 37.1101 45.2157 34.9799 48.7179Z" fill="#549DD7"/>
</g>
</svg>
