<svg width="54" height="78" viewBox="0 0 54 78" fill="none" xmlns="http://www.w3.org/2000/svg">
<g style="mix-blend-mode:plus-lighter">
<path d="M53.32 22.797C51.0334 7.46488 38.6705 0 27.3917 0C27.2732 0 27.1488 0.0120045 27.0303 0.0120045C26.9118 0.0120045 26.7874 0 26.669 0C15.3901 0 3.02125 7.47089 0.7406 22.797C0.616201 23.2955 0.527344 23.7279 0.527344 23.9861V24.1963V27.5234V27.6615C0.527344 27.7216 0.53327 27.7816 0.539194 27.8417C0.551041 28.166 0.574737 28.6585 0.604356 29.0909C0.616203 29.211 0.622129 29.3251 0.633976 29.4452C0.633976 29.4752 0.639897 29.5112 0.639897 29.5353C0.663592 29.7455 0.710981 29.9496 0.7406 30.1598C0.906466 31.2709 1.17896 32.3819 1.53438 33.4989C1.60547 33.7271 1.67656 33.9553 1.75357 34.1835C1.80688 34.3397 1.86612 34.4958 1.92535 34.652C4.15862 40.8617 8.62514 47.2336 12.1557 53.3172C16.8592 61.3767 21.7345 69.31 26.5742 77.2373C26.7223 77.4895 26.8644 77.7478 27.0125 78C27.0185 77.994 27.0244 77.982 27.0244 77.976C27.0303 77.982 27.0362 77.994 27.0362 78C27.1843 77.7478 27.3265 77.4895 27.4746 77.2373C32.3143 69.31 37.1955 61.3767 41.8931 53.3172C45.4236 47.2396 49.8842 40.8617 52.1234 34.658C52.1826 34.5018 52.2419 34.3397 52.2952 34.1835C52.3722 33.9613 52.4433 33.7331 52.5144 33.5109C52.8757 32.3939 53.1423 31.2709 53.3141 30.1538C53.3437 29.9496 53.3911 29.7455 53.4148 29.5413C53.4148 29.5172 53.4207 29.4812 53.4207 29.4512C53.4326 29.3311 53.4385 29.211 53.4503 29.0909C53.4799 28.6585 53.5036 28.166 53.5155 27.8477C53.5155 27.7876 53.5273 27.7276 53.5273 27.6675V27.5294V24.2023V23.9921C53.5273 23.7279 53.4385 23.2955 53.32 22.797ZM27.0303 36.1053C23.8907 36.0573 21.1065 34.5439 19.2998 32.2077C18.7607 31.457 18.275 30.6103 17.884 29.6013C17.6056 28.8386 17.6293 27.3132 17.6293 27.1751V25.0251C17.6293 23.6859 17.8899 22.5148 18.3224 21.4878C19.3116 19.536 20.8755 17.9626 22.8481 17.0497C23.0792 16.9476 23.3161 16.8576 23.553 16.7735C23.7604 16.6954 23.9796 16.6354 24.1928 16.5693C24.5897 16.4552 24.9925 16.3651 25.3953 16.299C25.8219 16.233 26.2543 16.1729 26.6986 16.1669C26.8111 16.1609 26.9237 16.1549 27.0362 16.1549C27.1488 16.1549 27.2613 16.1609 27.3739 16.1669C27.8182 16.1729 28.2506 16.233 28.6771 16.299C29.0799 16.3651 29.4827 16.4612 29.8796 16.5693C30.0988 16.6293 30.3121 16.6954 30.5194 16.7735C30.7564 16.8576 30.9933 16.9476 31.2243 17.0497C33.191 17.9626 34.7608 19.53 35.7442 21.4818C36.1766 22.5088 36.4373 23.6799 36.4373 25.0191V27.1691C36.4373 27.3072 36.461 28.8326 36.1825 29.5953C35.7916 30.6042 35.3058 31.451 34.7668 32.2017C32.9541 34.5379 30.1699 36.0573 27.0303 36.1053Z" fill="#EEBE3A"/>
</g>
</svg>
