<svg width="63" height="64" viewBox="0 0 63 64" fill="none" xmlns="http://www.w3.org/2000/svg">
<g style="mix-blend-mode:plus-lighter">
<path d="M42.4292 7.924L42.4293 7.92407C50.7364 16.506 51.4093 29.6631 44.6312 39.0222L44.1916 39.6293L44.921 39.802C45.7998 40.0101 46.6256 40.4402 47.2916 41.1258C47.2917 41.1258 47.2917 41.1259 47.2918 41.1259L61.1553 55.4637L61.1566 55.465C62.994 57.3512 62.9393 60.3514 61.0374 62.1664L61.0348 62.1689C59.1552 63.9887 56.1419 63.9369 54.3072 62.048L40.4436 47.7101L40.4428 47.7093C39.7747 47.0214 39.3616 46.1822 39.1929 45.3085L39.0502 44.5696L38.4244 44.9874C28.8009 51.4115 15.6381 50.2708 7.3182 41.6823C-2.00879 32.0365 -1.73223 16.6189 7.9365 7.30739C17.6118 -2.00462 33.0895 -1.72867 42.4292 7.924ZM38.1171 38.4954L38.1173 38.4953C45.6845 31.2089 45.9001 19.148 38.6051 11.5853L38.6047 11.5849C31.3035 4.03457 19.1967 3.81927 11.6302 11.0987L11.6299 11.099C4.06324 18.391 3.84073 30.452 11.1425 38.0091L11.1426 38.0093C18.4438 45.5596 30.5507 45.7749 38.1171 38.4954Z" fill="#EFD763"/>
<path d="M42.4292 7.924L42.4293 7.92407C50.7364 16.506 51.4093 29.6631 44.6312 39.0222L44.1916 39.6293L44.921 39.802C45.7998 40.0101 46.6256 40.4402 47.2916 41.1258C47.2917 41.1258 47.2917 41.1259 47.2918 41.1259L61.1553 55.4637L61.1566 55.465C62.994 57.3512 62.9393 60.3514 61.0374 62.1664L61.0348 62.1689C59.1552 63.9887 56.1419 63.9369 54.3072 62.048L40.4436 47.7101L40.4428 47.7093C39.7747 47.0214 39.3616 46.1822 39.1929 45.3085L39.0502 44.5696L38.4244 44.9874C28.8009 51.4115 15.6381 50.2708 7.3182 41.6823C-2.00879 32.0365 -1.73223 16.6189 7.9365 7.30739C17.6118 -2.00462 33.0895 -1.72867 42.4292 7.924ZM38.1171 38.4954L38.1173 38.4953C45.6845 31.2089 45.9001 19.148 38.6051 11.5853L38.6047 11.5849C31.3035 4.03457 19.1967 3.81927 11.6302 11.0987L11.6299 11.099C4.06324 18.391 3.84073 30.452 11.1425 38.0091L11.1426 38.0093C18.4438 45.5596 30.5507 45.7749 38.1171 38.4954Z" stroke="#EFD763"/>
</g>
</svg>
