<svg width="73" height="61" viewBox="0 0 73 61" fill="none" xmlns="http://www.w3.org/2000/svg">
<g style="mix-blend-mode:plus-lighter">
<path d="M43.5597 10.8602C46.8754 12.9423 49.2042 16.4625 49.6314 20.5484C50.9793 21.1742 52.4897 21.5413 54.0784 21.5413C59.8913 21.5413 64.603 16.8356 64.603 11.0227C64.603 5.20976 59.8913 0.498047 54.0784 0.498047C48.3136 0.504064 43.65 5.1255 43.5597 10.8602ZM36.6637 32.4089C42.4826 32.4089 47.1883 27.6972 47.1883 21.8843C47.1883 16.0714 42.4826 11.3657 36.6637 11.3657C30.8567 11.3657 26.139 16.0714 26.139 21.8903C26.145 27.6972 30.8567 32.4089 36.6637 32.4089ZM41.1287 33.125H32.1987C24.767 33.125 18.7254 39.1726 18.7254 46.5983V57.5201L18.7615 57.6886L19.5137 57.9233C26.6024 60.1317 32.7583 60.8778 37.8311 60.8778C47.7299 60.8778 53.4646 58.0556 53.8256 57.8751L54.5237 57.5201H54.5959V46.5983C54.6079 39.1726 48.5603 33.125 41.1287 33.125ZM58.5373 22.2634H49.6796C49.5833 25.8077 48.0729 29.003 45.6779 31.2957C52.2791 33.2574 57.1112 39.3773 57.1112 46.6163V49.9801C65.8607 49.6612 70.8973 47.182 71.2343 47.0135L71.9323 46.6524H72.0106V35.7306C72.0106 28.305 65.963 22.2634 58.5373 22.2634ZM18.2019 21.5473C20.2659 21.5473 22.1795 20.9456 23.7982 19.9226C24.3157 16.5588 26.121 13.6162 28.6965 11.6184C28.7085 11.4259 28.7265 11.2273 28.7265 11.0287C28.7265 5.21578 24.0148 0.50407 18.2019 0.50407C12.395 0.50407 7.68327 5.21578 7.68327 11.0287C7.68327 16.8356 12.389 21.5473 18.2019 21.5473ZM27.6554 31.2957C25.2725 29.0091 23.7621 25.8318 23.6538 22.3116C23.3228 22.2875 22.9979 22.2634 22.6669 22.2634H13.7369C6.30526 22.2634 0.263672 28.305 0.263672 35.7306V46.6524L0.293757 46.8209L1.03993 47.0556C6.72649 48.8308 11.8053 49.6491 16.2161 49.9019V46.6043C16.2161 39.3833 21.0482 33.2634 27.6554 31.2957Z" fill="#549DD7"/>
</g>
</svg>
