<svg width="75" height="79" viewBox="0 0 75 79" fill="none" xmlns="http://www.w3.org/2000/svg">
<path d="M72.987 71.9401L57.8369 55.2499L58.927 54.38L53.687 48.6C62.477 37.77 62.6269 21.9201 53.2769 10.9701C42.6969 -1.41992 23.9069 -2.89997 11.4069 7.66003C11.1469 7.88003 10.887 8.09996 10.627 8.33996C-1.16302 19 -2.44304 37.1599 7.91696 49.2899C17.277 60.2399 33.027 62.6499 45.197 55.7699L50.227 61.3199L51.2669 60.4999L66.417 77.18C67.957 78.89 70.697 79.11 72.507 77.66C74.317 76.22 74.537 73.6601 72.987 71.9501V71.9401ZM12.0969 45.7499C4.00695 36.2799 5.19694 21.9101 14.5869 13.2001C14.8669 12.9301 15.1669 12.68 15.4669 12.42C25.6569 3.81004 40.7569 4.73987 49.0869 14.4999C49.1869 14.6099 49.287 14.73 49.377 14.84C57.397 24.61 55.7969 39.3199 45.7169 47.8299C35.5169 56.4399 20.4269 55.5099 12.0869 45.7399L12.0969 45.7499Z" fill="#5BBFFF"/>
<path d="M31.826 37.26L27.756 41.2102L17.916 31.6501L21.986 27.7002L31.826 37.26Z" fill="#5BBFFF"/>
<path d="M28.5661 40.1902L24.4961 36.2302L39.3661 21.79L43.4361 25.75L28.5661 40.1902Z" fill="#5BBFFF"/>
</svg>
