<svg width="69" height="77" viewBox="0 0 69 77" fill="none" xmlns="http://www.w3.org/2000/svg">
<path d="M64.2786 34.2398C66.7186 34.3798 68.8086 32.5801 68.9486 30.2101C69.0286 28.8201 68.4086 27.5501 67.3986 26.7101C68.6586 23.0101 68.5786 19.7201 66.8786 17.2301C65.1586 14.7201 61.9986 13.2599 57.7286 13.0199C55.0586 12.8699 51.9886 13.19 48.6786 13.94C46.0586 5.84004 41.7786 0.629945 36.5886 0.339946C31.4286 0.0399455 26.5786 4.65992 23.0086 12.3099C19.8086 11.1799 16.8086 10.4899 14.1286 10.3399C9.95862 10.0999 6.70857 11.16 4.70857 13.4C2.26857 16.13 1.94858 20.31 3.64858 25.42C2.72858 26.15 2.09858 27.2301 2.02858 28.4801C1.88858 30.8501 3.74861 32.8799 6.17861 33.0199C6.54861 33.0399 6.89861 33 7.24861 32.94C8.02861 34.21 8.89857 35.4899 9.82857 36.7699C1.60857 45.4699 -1.87137 54.1199 1.69863 59.3299C3.41863 61.8399 6.57858 63.2999 10.8386 63.5399C13.5186 63.6899 16.5786 63.37 19.8886 62.62C22.5086 70.72 26.7886 75.9301 31.9886 76.2201C37.1486 76.5201 41.9886 71.8999 45.5586 64.2499C48.7586 65.3899 51.7586 66.0701 54.4386 66.2201C58.6086 66.4601 61.8686 65.4 63.8686 63.16C67.0086 59.63 66.6886 53.7001 62.9386 46.4701C61.8086 44.2801 60.3786 42.0399 58.7386 39.7899C60.5386 37.8799 62.0986 35.98 63.4186 34.12C63.6886 34.19 63.9686 34.2299 64.2586 34.2499L64.2786 34.2398ZM36.4086 3.23985C40.0086 3.43985 43.4786 7.66003 45.7786 14.68C42.5086 15.61 39.0786 16.9099 35.5786 18.5399C32.2586 16.4599 28.9586 14.73 25.7886 13.39C28.8986 6.77999 32.8286 3.03986 36.4086 3.24986V3.23985ZM38.8586 54.9999C39.3886 55.2699 39.9886 55.4401 40.6286 55.4801C43.0686 55.6201 45.1586 53.81 45.2986 51.44C45.2986 51.3 45.2886 51.1599 45.2786 51.0199C45.8386 50.6399 46.4086 50.27 46.9586 49.89C46.1786 53.87 45.1386 57.4101 43.9286 60.4801C41.3986 59.4101 38.7786 58.0601 36.1086 56.4701C37.0286 56.0001 37.9386 55.5099 38.8486 54.9999H38.8586ZM44.1086 48.2599C43.3586 47.4799 42.3286 46.97 41.1486 46.9C38.7086 46.76 36.6186 48.57 36.4786 50.94C36.4386 51.59 36.5686 52.2199 36.7986 52.7899C35.5986 53.4499 34.4086 54.08 33.2186 54.66C30.4886 52.86 27.7586 50.8299 25.0986 48.5899C23.3586 47.1199 21.6986 45.6099 20.1386 44.0799C20.1086 41.9599 20.1386 39.7601 20.2786 37.4801C20.4186 35.1601 20.6586 32.9599 20.9486 30.8299C22.6886 29.5099 24.5386 28.2 26.5186 26.91C29.4486 25.02 32.4286 23.34 35.3686 21.89C38.0986 23.69 40.8286 25.7201 43.4886 27.9601C45.2286 29.4301 46.8786 30.9401 48.4486 32.4701C48.4786 34.5901 48.4486 36.7899 48.3086 39.0799C48.1686 41.3899 47.9286 43.6001 47.6386 45.7301C46.5186 46.5801 45.3286 47.4299 44.1086 48.2699V48.2599ZM17.1186 40.9601C15.9086 39.6401 14.7886 38.3199 13.7386 36.9898C14.9286 35.8298 16.1886 34.6598 17.5686 33.4898C17.4386 34.7398 17.3386 36.0099 17.2586 37.2899C17.1886 38.5299 17.1386 39.7501 17.1186 40.9501V40.9601ZM30.0986 56.1C27.3086 57.32 24.5786 58.3199 21.9886 59.0599C21.1786 55.8999 20.5886 52.3099 20.2986 48.3199C21.2186 49.1599 22.1586 49.9799 23.1186 50.7899C25.3986 52.7099 27.7386 54.48 30.0986 56.1ZM21.6186 26.66C22.3986 22.68 23.4386 19.1399 24.6486 16.0699C27.1686 17.1399 29.7986 18.4899 32.4686 20.0799C29.9186 21.3999 27.3686 22.8598 24.8486 24.4898C23.7386 25.1998 22.6686 25.93 21.6186 26.67V26.66ZM51.4586 35.5799C52.6686 36.8899 53.7886 38.2199 54.8386 39.5499C53.6486 40.7099 52.3886 41.8799 51.0086 43.0499C51.1386 41.7999 51.2386 40.5299 51.3186 39.2499C51.3986 38.0099 51.4386 36.7899 51.4686 35.5899L51.4586 35.5799ZM45.4586 25.7499C43.1786 23.8299 40.8386 22.06 38.4786 20.44C41.2686 19.22 43.9886 18.2201 46.5886 17.4701C47.3986 20.6301 47.9886 24.2201 48.2786 28.2101C47.3686 27.3701 46.4286 26.5498 45.4586 25.7398V25.7499ZM9.83858 31.44C10.4186 30.76 10.7986 29.9101 10.8486 28.9601C10.9886 26.5901 9.12863 24.56 6.69863 24.42C6.61863 24.42 6.54858 24.43 6.46858 24.43C5.13858 20.41 5.28859 17.1899 6.97859 15.2899C8.69859 13.3599 11.7186 13.1101 13.9486 13.2301C16.3186 13.3601 18.9986 13.9701 21.8486 14.9701C20.2186 19.1001 18.9386 23.9398 18.1186 29.2398C15.8686 30.9998 13.8186 32.79 11.9486 34.6C11.1886 33.54 10.4686 32.48 9.82857 31.43L9.83858 31.44ZM11.0186 60.61C8.72857 60.48 5.68857 59.8701 4.20857 57.7001C1.73857 54.0901 4.41858 46.92 11.6486 39.13C13.3086 41.2 15.1386 43.2499 17.1386 45.2699C17.3086 50.5999 17.9886 55.5199 19.0886 59.7999C16.1386 60.4499 13.4086 60.74 11.0286 60.6L11.0186 60.61ZM32.1686 73.2999C28.5686 73.0999 25.0886 68.88 22.7986 61.86C26.0586 60.93 29.4986 59.6299 32.9986 57.9999C36.3186 60.0799 39.6186 61.82 42.7886 63.15C39.6786 69.76 35.7486 73.4899 32.1786 73.2899L32.1686 73.2999ZM60.2586 47.7699C63.3686 53.7999 63.8586 58.7099 61.5986 61.2398C59.8786 63.1698 56.8586 63.4299 54.6286 63.2999C52.2586 63.1599 49.5786 62.5599 46.7286 61.5599C48.3586 57.4299 49.6386 52.5899 50.4586 47.2899C52.7086 45.5299 54.7586 43.74 56.6286 41.93C58.0386 43.9 59.2786 45.8599 60.2586 47.7799V47.7699ZM51.4386 31.2599C51.2686 25.9299 50.5886 21.0098 49.4986 16.7398C52.4486 16.0898 55.1886 15.8 57.5586 15.93C59.8486 16.06 62.8886 16.6699 64.3786 18.8399C65.4986 20.4799 65.5486 22.85 64.6086 25.68C62.2586 25.65 60.2686 27.4001 60.1286 29.7101C60.0686 30.7401 60.3986 31.7001 60.9886 32.4801C59.8586 34.0801 58.4986 35.73 56.9386 37.41C55.2786 35.34 53.4486 33.2799 51.4486 31.2599H51.4386Z" fill="#5BBFFF"/>
</svg>
