<svg width="79" height="85" viewBox="0 0 79 85" fill="none" xmlns="http://www.w3.org/2000/svg">
<path d="M78.9742 47.795L71.7409 34.968L71.8354 34.245L72.1704 33.556L72.5226 32.8415L72.5999 32.1695L72.2993 30.8086L71.947 29.4476L71.5691 28.0526L71.1223 26.7257L70.6413 25.3648L70.1602 24.0293L69.619 22.6684L69.0606 21.35L68.4592 20.1081L67.1363 17.5648C67.1363 17.5648 68.9317 16.9098 69.1379 16.3825C70.9162 11.8488 61.9475 5.14611 54.8945 2.6964C54.6196 2.60283 53.7949 2.29662 53.7949 2.29662L52.472 1.87983L51.1662 1.5566L49.8432 1.21635L48.5374 0.927146L47.1973 0.654975L45.8399 0.459329L44.474 0.289199L43.1081 0.161615L41.7679 0.0850647L40.402 0.0425453L39.0447 0L37.6272 0.0425453L36.2699 0.0850647L34.9212 0.161615L33.5466 0.289199L32.2065 0.459329L30.7976 0.654975L29.4145 0.927146L27.9971 1.17383L26.5968 1.44602L25.1965 1.8458L23.7962 2.21155L22.3959 2.63685L21.0472 3.09618L19.7071 3.59803L18.4184 4.19343L17.0783 4.77185L15.8241 5.40129L14.5784 6.1243L13.4187 6.84731L12.2761 7.65536L11.1593 8.49747L10.1714 9.33955L9.20062 10.2157L8.29861 11.1513L7.42237 12.1125L6.58047 13.1672L5.75577 14.1794L5.00839 15.2682L4.29535 16.3995L3.6081 17.5478L2.99814 18.7131L2.45695 19.9039L1.95008 21.0948L1.50337 22.3026L1.11678 23.5275L0.781756 24.7949L0.532619 26.0197L0.146053 28.6225L0 31.1743L0.0687402 33.7346L0.317851 36.2779L0.747386 38.8212L1.44323 41.2964C1.44323 41.2964 2.01022 43.1507 2.33667 43.7036C4.18367 46.8083 11.8809 54.6848 11.8809 54.6848C23.0574 65.734 23.1433 76.1198 23.1433 76.1198L23.1777 78.2803L23.255 85H57.8239L57.9786 84.311V82.1675L58.0559 80.007L58.2277 75.2011L58.4854 72.7685L58.6143 72.19L58.8548 71.7137L59.1126 71.2969L59.4476 70.9567L59.9115 70.7185L60.4184 70.5484L60.9939 70.3613L61.6124 70.2677L62.4114 70.1912L63.1588 70.1486H63.3306L64.078 70.2252L64.791 70.2677L65.504 70.3613L66.1913 70.4123L66.9902 70.5059L67.7376 70.5824L65.8562 70.6249L66.6809 70.7015L67.5229 70.744L68.4335 70.7866L68.9747 70.744L69.5331 70.6249L70.0915 70.4123L70.6327 70.1486L71.1567 69.8254L71.6034 69.4426L71.9728 69.0173L72.3079 68.592L72.514 67.6564L72.4024 66.6612L72.1962 65.666V64.7048L72.3594 64.2795L72.5656 63.9138L72.7717 63.514L73.0381 63.1907L73.3044 62.842L73.5106 62.4762L73.6824 62.0935L73.7253 61.6852L73.6824 61.2259L73.605 60.8091L73.4762 60.3668L73.2528 59.95L72.935 59.5672L72.5999 59.2015L72.1876 58.9123L71.7237 58.589L72.2306 58.3423L72.7116 58.0531L73.2013 57.7214L73.5363 57.3982L73.8542 57.0154L74.026 56.5816L74.1205 56.1988L74.026 55.7821L73.5449 54.285L73.2442 52.9411L73.0553 51.6822V50.4403L78.665 49.0198L78.8711 48.637L79 48.2203L78.9742 47.795Z" fill="#F7C12F"/>
</svg>
