<svg width="80" height="86" viewBox="0 0 80 86" fill="none" xmlns="http://www.w3.org/2000/svg">
<path d="M78.8658 78.6404L62.2924 60.2408L63.4898 59.2788L57.7542 52.9037C67.3685 40.9579 67.5334 23.494 57.303 11.4171C45.7276 -2.2427 25.18 -3.87801 11.4961 7.77041C11.2097 8.01527 10.932 8.26014 10.6456 8.51375C-2.25737 20.2671 -3.65433 40.2933 7.67809 53.6645C17.9172 65.7414 35.1501 68.3999 48.4696 60.8092L53.971 66.922L55.1076 66.0125L71.6812 84.4121C73.3732 86.3011 76.3581 86.5372 78.3452 84.9456C80.3236 83.3453 80.5665 80.5293 78.8658 78.6404ZM12.2597 49.7554C3.40894 39.3138 4.71042 23.4678 14.9842 13.8657C15.2966 13.5684 15.6178 13.2885 15.9475 13.0087C27.0977 3.51156 43.6103 4.54348 52.7301 15.3087C52.8342 15.4311 52.9471 15.5623 53.0425 15.6847C61.8152 26.4586 60.071 42.672 49.0423 52.0642C37.8921 61.5613 21.3881 60.5294 12.2597 49.7554Z" fill="#FDFDFE"/>
<path d="M34.7765 39.2702L30.3251 43.6253L19.5566 33.0874L24.0081 28.7324L34.7765 39.2702Z" fill="#FDFDFE"/>
<path d="M30.2737 43.6255L25.8223 39.2705L42.0834 23.3457L46.5434 27.7095L30.2737 43.6255Z" fill="#FDFDFE"/>
</svg>
