<svg width="56" height="99" viewBox="0 0 56 99" fill="none" xmlns="http://www.w3.org/2000/svg">
<path d="M51.72 0H3.64001C1.63001 0 0 1.99999 0 4.45999V94.15C0 96.61 1.63001 98.61 3.64001 98.61H51.72C53.73 98.61 55.36 96.61 55.36 94.15V4.45999C55.36 1.99999 53.73 0 51.72 0ZM27.6801 96.22C25.1901 96.22 23.16 94.25 23.16 91.82C23.16 89.4 25.1901 87.43 27.6801 87.43C30.1801 87.43 32.21 89.4 32.21 91.82C32.21 94.25 30.1801 96.22 27.6801 96.22ZM52.57 80.4C52.57 83.14 50.3801 85.36 47.6801 85.36H7.67004C4.97004 85.36 2.78003 83.13 2.78003 80.4V14.99C2.78003 12.25 4.97004 10.04 7.67004 10.04H47.6801C50.3801 10.04 52.57 12.26 52.57 14.99V80.4Z" fill="white"/>
<path d="M10.8695 21.5303C8.97951 21.5303 7.43945 23.0203 7.43945 24.8603C7.43945 26.7003 8.96951 28.1903 10.8695 28.1903C12.7595 28.1903 14.2995 26.7003 14.2995 24.8603C14.2995 23.0203 12.7695 21.5303 10.8695 21.5303Z" fill="white"/>
<path d="M10.8695 33.2002C8.97951 33.2002 7.43945 34.6902 7.43945 36.5302C7.43945 38.3702 8.96951 39.8602 10.8695 39.8602C12.7595 39.8602 14.2995 38.3702 14.2995 36.5302C14.2995 34.6902 12.7695 33.2002 10.8695 33.2002Z" fill="white"/>
<path d="M10.8695 45.5596C8.97951 45.5596 7.43945 47.0496 7.43945 48.8896C7.43945 50.7296 8.96951 52.2196 10.8695 52.2196C12.7595 52.2196 14.2995 50.7296 14.2995 48.8896C14.2995 47.0496 12.7695 45.5596 10.8695 45.5596Z" fill="white"/>
<path d="M10.8695 57.9199C8.97951 57.9199 7.43945 59.4099 7.43945 61.2499C7.43945 63.0899 8.96951 64.5799 10.8695 64.5799C12.7595 64.5799 14.2995 63.0899 14.2995 61.2499C14.2995 59.4099 12.7695 57.9199 10.8695 57.9199Z" fill="white"/>
<path d="M10.8695 70.2803C8.97951 70.2803 7.43945 71.7703 7.43945 73.6103C7.43945 75.4503 8.96951 76.9403 10.8695 76.9403C12.7595 76.9403 14.2995 75.4503 14.2995 73.6103C14.2995 71.7703 12.7695 70.2803 10.8695 70.2803Z" fill="white"/>
<path d="M45.0508 23.0303H20.5508V25.3203H45.0508V23.0303Z" fill="white"/>
<path d="M45.0508 35.3896H20.5508V37.6797H45.0508V35.3896Z" fill="white"/>
<path d="M45.0508 47.7402H20.5508V50.0302H45.0508V47.7402Z" fill="white"/>
<path d="M45.0508 60.0996H20.5508V62.3896H45.0508V60.0996Z" fill="white"/>
<path d="M45.0508 72.46H20.5508V74.75H45.0508V72.46Z" fill="white"/>
</svg>
