<svg width="72" height="61" viewBox="0 0 72 61" fill="none" xmlns="http://www.w3.org/2000/svg">
<g style="mix-blend-mode:plus-lighter">
<path d="M43.2961 10.3622C46.6117 12.4442 48.9405 15.9645 49.3677 20.0504C50.7157 20.6762 52.2261 21.0432 53.8147 21.0432C59.6276 21.0432 64.3393 16.3376 64.3393 10.5246C64.3393 4.71171 59.6276 0 53.8147 0C48.0499 0.00601752 43.3863 4.62746 43.2961 10.3622ZM36.4 31.9109C42.2189 31.9109 46.9246 27.1992 46.9246 21.3863C46.9246 15.5733 42.2189 10.8676 36.4 10.8676C30.5931 10.8676 25.8753 15.5733 25.8753 21.3923C25.8814 27.1992 30.5931 31.9109 36.4 31.9109ZM40.865 32.627H31.935C24.5033 32.627 18.4618 38.6746 18.4618 46.1002V57.022L18.4979 57.1905L19.25 57.4252C26.3387 59.6337 32.4946 60.3798 37.5674 60.3798C47.4662 60.3798 53.2009 57.5576 53.562 57.377L54.26 57.022H54.3322V46.1002C54.3442 38.6746 48.2966 32.627 40.865 32.627ZM58.2737 21.7654H49.4159C49.3196 25.3097 47.8092 28.505 45.4142 30.7977C52.0154 32.7594 56.8475 38.8792 56.8475 46.1183V49.4821C65.597 49.1631 70.6337 46.6839 70.9706 46.5155L71.6687 46.1543H71.7469V35.2326C71.7469 27.807 65.6993 21.7654 58.2737 21.7654ZM17.9382 21.0493C20.0022 21.0493 21.9158 20.4475 23.5345 19.4245C24.052 16.0607 25.8573 13.1182 28.4328 11.1204C28.4448 10.9278 28.4629 10.7292 28.4629 10.5307C28.4629 4.71774 23.7512 0.0060234 17.9382 0.0060234C12.1313 0.0060234 7.4196 4.71774 7.4196 10.5307C7.4196 16.3376 12.1253 21.0493 17.9382 21.0493ZM27.3918 30.7977C25.0088 28.511 23.4984 25.3338 23.3901 21.8135C23.0591 21.7894 22.7342 21.7654 22.4032 21.7654H13.4732C6.04159 21.7654 0 27.807 0 35.2326V46.1543L0.0300848 46.3229L0.776261 46.5575C6.46282 48.3327 11.5416 49.1511 15.9524 49.4038V46.1062C15.9524 38.8852 20.7845 32.7654 27.3918 30.7977Z" fill="#55FFFF"/>
</g>
</svg>
