<svg width="41" height="73" viewBox="0 0 41 73" fill="none" xmlns="http://www.w3.org/2000/svg">
<path d="M37.84 0H2.65991C1.18991 0 0 1.46002 0 3.27002V68.91C0 70.71 1.18991 72.1801 2.65991 72.1801H37.84C39.31 72.1801 40.5 70.72 40.5 68.91V3.27002C40.5 1.47002 39.31 0 37.84 0ZM20.25 70.42C18.43 70.42 16.9399 68.9799 16.9399 67.2C16.9399 65.42 18.42 63.99 20.25 63.99C22.08 63.99 23.5699 65.43 23.5699 67.2C23.5699 68.9699 22.09 70.42 20.25 70.42ZM38.47 58.84C38.47 60.84 36.87 62.47 34.89 62.47H5.60999C3.63999 62.47 2.03992 60.84 2.03992 58.84V10.98C2.03992 8.97998 3.63999 7.35999 5.60999 7.35999H34.89C36.86 7.35999 38.47 8.97998 38.47 10.98V58.84Z" fill="#0091EE"/>
<path d="M10.0195 39.2496H30.4795V17.6797H10.0195V39.2496ZM11.1395 18.7596H29.3595V38.1697H26.8595V34.3596C26.8595 33.7696 26.3595 33.1596 25.7495 32.9996L23.8195 32.4996L23.6095 32.4396L21.6594 31.8596V30.8096C21.7894 30.6996 21.9295 30.5697 22.0695 30.4297C22.1795 30.3097 22.2994 30.1797 22.4094 30.0497C24.0494 29.8297 25.3994 29.3797 25.7794 28.7697C26.4994 27.6197 24.1095 23.6396 24.1095 23.6396C23.8695 22.7996 23.1495 21.7897 21.1895 21.5397C21.0895 21.5197 20.9895 21.5096 20.8895 21.4996C20.6795 21.4796 20.4695 21.4696 20.2495 21.4696H20.1295C19.9095 21.4696 19.6995 21.4796 19.4895 21.4996C19.3895 21.5096 19.2895 21.5297 19.1895 21.5397C17.3395 21.7797 16.5995 22.6796 16.3195 23.4896C16.3195 23.4896 13.9195 27.6797 14.7695 28.7797C15.3095 29.4797 16.5795 29.8996 18.0695 30.0896C18.2295 30.2796 18.3894 30.4496 18.5494 30.6096C18.5694 30.6296 18.5895 30.6497 18.6095 30.6597C18.6495 30.6997 18.6895 30.7397 18.7295 30.7697C18.7695 30.7997 18.8095 30.8396 18.8495 30.8696V31.9496L16.8094 32.4896L16.5995 32.5497L14.7595 33.0397C14.1495 33.2097 13.6494 33.8197 13.6494 34.4097V38.1697H11.1494V18.7596H11.1395Z" fill="#0091EE"/>
<path d="M30.4795 41.3398H10.0195V46.0399H30.4795V41.3398Z" fill="#0091EE"/>
</svg>
