<svg width="69" height="76" viewBox="0 0 69 76" fill="none" xmlns="http://www.w3.org/2000/svg">
<path d="M63.9758 33.9137C66.4158 34.0537 68.5059 32.2539 68.6459 29.8839C68.7259 28.4939 68.1058 27.2239 67.0958 26.3839C68.3558 22.6839 68.2759 19.3939 66.5759 16.9039C64.8559 14.3939 61.6959 12.9337 57.4259 12.6937C54.7559 12.5437 51.6859 12.8639 48.3759 13.6139C45.7559 5.51387 41.4758 0.303774 36.2858 0.0137736C31.1258 -0.286226 26.2759 4.33374 22.7059 11.9837C19.5059 10.8537 16.5059 10.1638 13.8259 10.0138C9.65588 9.77377 6.40584 10.8338 4.40584 13.0738C1.96584 15.8038 1.64584 19.9839 3.34584 25.0939C2.42584 25.8239 1.79585 26.9039 1.72585 28.1539C1.58585 30.5239 3.44587 32.5537 5.87587 32.6937C6.24587 32.7137 6.59588 32.6739 6.94588 32.6139C7.72588 33.8839 8.59583 35.1637 9.52584 36.4437C1.30583 45.1437 -2.17411 53.7938 1.39589 59.0038C3.11589 61.5138 6.27584 62.9737 10.5358 63.2137C13.2158 63.3637 16.2759 63.0438 19.5859 62.2938C22.2059 70.3938 26.4859 75.6039 31.6859 75.8939C36.8459 76.1939 41.6859 71.5737 45.2559 63.9237C48.4559 65.0637 51.4559 65.7439 54.1359 65.8939C58.3059 66.1339 61.5659 65.0738 63.5659 62.8338C66.7059 59.3038 66.3859 53.3739 62.6359 46.1439C61.5059 43.9539 60.0759 41.7137 58.4359 39.4637C60.2359 37.5537 61.7959 35.6538 63.1159 33.7938C63.3859 33.8638 63.6659 33.9037 63.9559 33.9237L63.9758 33.9137ZM36.1059 2.91368C39.7059 3.11368 43.1758 7.33386 45.4758 14.3539C42.2058 15.2839 38.7758 16.5837 35.2758 18.2137C31.9558 16.1337 28.6559 14.4038 25.4859 13.0638C28.5959 6.45382 32.5259 2.71369 36.1059 2.92369V2.91368ZM38.5559 54.6737C39.0859 54.9437 39.6859 55.1139 40.3259 55.1539C42.7659 55.2939 44.8559 53.4839 44.9959 51.1139C44.9959 50.9739 44.9858 50.8337 44.9758 50.6937C45.5359 50.3137 46.1058 49.9438 46.6558 49.5638C45.8758 53.5438 44.8359 57.0839 43.6259 60.1539C41.0959 59.0839 38.4759 57.7339 35.8059 56.1439C36.7259 55.6739 37.6359 55.1837 38.5459 54.6737H38.5559ZM43.8059 47.9337C43.0559 47.1537 42.0258 46.6438 40.8458 46.5738C38.4058 46.4338 36.3159 48.2439 36.1759 50.6139C36.1359 51.2639 36.2659 51.8937 36.4959 52.4637C35.2959 53.1237 34.1059 53.7538 32.9159 54.3338C30.1859 52.5338 27.4559 50.5038 24.7959 48.2638C23.0559 46.7938 21.3959 45.2838 19.8359 43.7538C19.8059 41.6338 19.8358 39.4339 19.9758 37.1539C20.1158 34.8339 20.3559 32.6338 20.6459 30.5038C22.3859 29.1838 24.2358 27.8738 26.2158 26.5838C29.1458 24.6938 32.1259 23.0138 35.0659 21.5638C37.7959 23.3638 40.5259 25.3939 43.1859 27.6339C44.9259 29.1039 46.5759 30.6139 48.1459 32.1439C48.1759 34.2639 48.1459 36.4638 48.0059 38.7538C47.8659 41.0638 47.6259 43.2739 47.3359 45.4039C46.2159 46.2539 45.0259 47.1037 43.8059 47.9437V47.9337ZM16.8159 40.6339C15.6059 39.3139 14.4859 37.9937 13.4359 36.6637C14.6259 35.5037 15.8859 34.3337 17.2659 33.1637C17.1359 34.4137 17.0359 35.6837 16.9559 36.9637C16.8859 38.2037 16.8359 39.4239 16.8159 40.6239V40.6339ZM29.7959 55.7738C27.0059 56.9938 24.2759 57.9937 21.6859 58.7337C20.8759 55.5737 20.2859 51.9838 19.9959 47.9938C20.9159 48.8338 21.8559 49.6537 22.8159 50.4637C25.0959 52.3837 27.4359 54.1538 29.7959 55.7738ZM21.3159 26.3338C22.0959 22.3538 23.1358 18.8138 24.3458 15.7438C26.8658 16.8138 29.4959 18.1638 32.1659 19.7538C29.6159 21.0738 27.0659 22.5337 24.5459 24.1637C23.4359 24.8737 22.3659 25.6039 21.3159 26.3439V26.3338ZM51.1558 35.2538C52.3658 36.5638 53.4858 37.8937 54.5358 39.2237C53.3458 40.3837 52.0859 41.5537 50.7059 42.7237C50.8359 41.4737 50.9359 40.2037 51.0159 38.9237C51.0959 37.6837 51.1359 36.4638 51.1659 35.2638L51.1558 35.2538ZM45.1558 25.4237C42.8758 23.5037 40.5359 21.7339 38.1759 20.1139C40.9659 18.8939 43.6858 17.8939 46.2858 17.1439C47.0958 20.3039 47.6858 23.8939 47.9758 27.8839C47.0658 27.0439 46.1258 26.2237 45.1558 25.4137V25.4237ZM9.53584 31.1139C10.1158 30.4339 10.4959 29.5839 10.5459 28.6339C10.6859 26.2639 8.82589 24.2339 6.39589 24.0939C6.31589 24.0939 6.24585 24.1039 6.16585 24.1039C4.83585 20.0839 4.98586 16.8637 6.67586 14.9637C8.39586 13.0337 11.4159 12.7839 13.6459 12.9039C16.0159 13.0339 18.6959 13.6439 21.5459 14.6439C19.9159 18.7739 18.6359 23.6137 17.8159 28.9137C15.5659 30.6737 13.5159 32.4638 11.6459 34.2738C10.8859 33.2138 10.1658 32.1539 9.52584 31.1039L9.53584 31.1139ZM10.7158 60.2838C8.42584 60.1538 5.38584 59.5439 3.90584 57.3739C1.43584 53.7639 4.11584 46.5938 11.3458 38.8038C13.0058 40.8738 14.8359 42.9237 16.8359 44.9437C17.0059 50.2737 17.6858 55.1937 18.7858 59.4737C15.8358 60.1237 13.1058 60.4138 10.7258 60.2738L10.7158 60.2838ZM31.8659 72.9737C28.2659 72.7737 24.7859 68.5538 22.4959 61.5338C25.7559 60.6038 29.1959 59.3037 32.6959 57.6737C36.0159 59.7537 39.3159 61.4938 42.4859 62.8238C39.3759 69.4338 35.4459 73.1637 31.8759 72.9637L31.8659 72.9737ZM59.9559 47.4437C63.0659 53.4737 63.5559 58.3837 61.2959 60.9137C59.5759 62.8437 56.5559 63.1037 54.3259 62.9737C51.9559 62.8337 49.2759 62.2337 46.4259 61.2337C48.0559 57.1037 49.3358 52.2637 50.1558 46.9637C52.4058 45.2037 54.4559 43.4139 56.3259 41.6039C57.7359 43.5739 58.9759 45.5337 59.9559 47.4537V47.4437ZM51.1359 30.9337C50.9659 25.6037 50.2859 20.6837 49.1959 16.4137C52.1459 15.7637 54.8859 15.4739 57.2559 15.6039C59.5459 15.7339 62.5859 16.3438 64.0759 18.5138C65.1959 20.1538 65.2459 22.5239 64.3059 25.3539C61.9559 25.3239 59.9659 27.0739 59.8259 29.3839C59.7659 30.4139 60.0959 31.3739 60.6859 32.1539C59.5559 33.7539 58.1959 35.4038 56.6359 37.0838C54.9759 35.0138 53.1459 32.9537 51.1459 30.9337H51.1359Z" fill="#5BBFFF"/>
</svg>
