<svg width="77" height="60" viewBox="0 0 77 60" fill="none" xmlns="http://www.w3.org/2000/svg">
<path d="M74.2209 0H2.57223C1.15014 0 0 1.15013 0 2.55985V49.9961C0 50.9606 0.531812 51.7889 1.31087 52.2341C1.68185 52.4443 2.11469 52.568 2.57223 52.568H23.4213V56.3397H53.3718V52.568H74.2209C74.6785 52.568 75.1113 52.4443 75.4823 52.2341C76.2614 51.7889 76.7932 50.9606 76.7932 49.9961V2.55985C76.7932 1.15013 75.643 0 74.2209 0ZM74.592 50.0084C74.592 50.2063 74.4312 50.3792 74.2209 50.3792H2.57223C2.37437 50.3792 2.20119 50.2187 2.20119 50.0084V2.57223C2.20119 2.37437 2.36201 2.20119 2.57223 2.20119H74.2209C74.4312 2.20119 74.592 2.36201 74.592 2.57223V50.0084Z" fill="#55FFFF"/>
<path d="M62.7559 57.9854H13.9473V60.0009H62.7559V57.9854Z" fill="#55FFFF"/>
<path d="M57.1442 17.5479H19.5762V35.664H57.1442V17.5479Z" fill="#55FFFF"/>
</svg>
