<svg width="77" height="60" viewBox="0 0 77 60" fill="none" xmlns="http://www.w3.org/2000/svg">
<path d="M75.54 0.309937L70.23 2.04004V1.91003L70 1.85999C70 1.85999 65.6601 0.939941 60.1901 0.939941C53.1701 0.939941 43.8 2.43999 38.76 9.48999C30.92 1.65999 21.5001 0 14.9501 0C9.17007 0 5.01002 1.28004 4.96002 1.29004L4.76001 1.34998V1.45996L1.23004 0.309937C0.550041 0.0899365 0 0.470044 0 1.17004V48.16C0 48.86 0.55999 49.59 1.23999 49.79L30.98 58.71C31.67 58.92 32.8 59.09 33.52 59.09H43.25C43.97 59.09 45.1 58.92 45.79 58.71L75.53 49.79C76.21 49.59 76.77 48.85 76.77 48.16V1.17004C76.77 0.470044 76.22 0.0899365 75.54 0.309937ZM34.6801 54.66C31.4101 53.03 21.26 48.32 10.75 46.88L10.67 47.4299C20.79 48.8099 30.59 53.27 34.11 55C33.74 55.26 33.4301 55.54 33.2001 55.79C30.0201 54.48 20.16 50.66 6.17004 47.45L6.04004 47.99C19.78 51.15 29.52 54.88 32.83 56.24C32.6 56.56 32.5 56.7899 32.48 56.8199C32.47 56.8399 32.46 56.86 32.46 56.87L2.54999 47.37V2.78003L4.77002 1.68994V45.74H5.06C5.29 45.74 5.52 45.74 5.75 45.74C24.54 45.74 35.92 52.54 37.91 53.84C36.53 53.9 35.4801 54.24 34.6901 54.66H34.6801ZM38.08 53.29C35.68 51.76 24.27 45.1799 5.73999 45.1799C5.59999 45.1799 5.47003 45.1799 5.34003 45.1799V1.76001C6.23003 1.51001 9.97007 0.549927 14.9501 0.549927C21.4401 0.549927 30.78 2.20003 38.51 10.03L38.08 53.29ZM39.09 10.01C43.95 2.98001 53.2401 1.5 60.1901 1.5C64.8901 1.5 68.7 2.17999 69.65 2.35999V44.16H69.3201C51.0501 44.16 40.9901 51.3199 38.6801 53.1899L39.09 10V10.01ZM74.39 47.38L43.6801 56.88C43.6801 56.88 43.4701 56.57 43.0701 56.15C46.6001 54.72 56.19 51.08 69.62 48L69.49 47.46C55.77 50.61 46.02 54.35 42.65 55.72C42.38 55.46 42.0601 55.1899 41.6901 54.9299C45.3301 53.1499 55 48.7899 64.99 47.4299L64.91 46.88C54.56 48.29 44.55 52.89 41.13 54.58C40.45 54.19 39.66 53.89 38.78 53.84C40.32 52.52 50.4801 44.54 69.9301 44.72H70.22V2.17004L74.38 2.79004V47.37L74.39 47.38Z" fill="#0091EE"/>
</svg>
