<svg width="85" height="67" viewBox="0 0 85 67" fill="none" xmlns="http://www.w3.org/2000/svg">
<path d="M81.73 0H2.83002C1.27002 0 0 1.26008 0 2.83008V55.0701C0 56.1301 0.580002 57.05 1.44 57.53C1.85 57.76 2.32002 57.89 2.83002 57.89H25.78V62.0402H58.77V57.89H81.72C82.22 57.89 82.7 57.76 83.11 57.53C83.97 57.04 84.55 56.1201 84.55 55.0701V2.83008C84.55 1.27008 83.28 0 81.72 0H81.73ZM82.14 55.0601C82.14 55.2801 81.9601 55.4601 81.7401 55.4601H2.84003C2.62003 55.4601 2.44 55.2801 2.44 55.0601V2.82007C2.44 2.60007 2.62003 2.41003 2.84003 2.41003H81.7401C81.9701 2.41003 82.14 2.59007 82.14 2.82007V55.0601Z" fill="#0091EE"/>
<path d="M69.1094 63.8496H15.3594V66.0696H69.1094V63.8496Z" fill="#0091EE"/>
<path d="M62.9208 19.3105H21.5508V39.2505H62.9208V19.3105Z" fill="#0091EE"/>
</svg>
